<svg width="30" height="30" viewBox="0 0 30 30" fill="none" xmlns="http://www.w3.org/2000/svg">
<circle cx="15" cy="15" r="15" fill="#EB4747"/>
<path d="M19.2501 8.00312L17.305 8C15.1197 8 13.7074 9.44892 13.7074 11.6915V13.3936H11.7517C11.5827 13.3936 11.4458 13.5306 11.4458 13.6996V16.1656C11.4458 16.3346 11.5828 16.4715 11.7517 16.4715H13.7074V22.6941C13.7074 22.8631 13.8443 23 14.0133 23H16.565C16.734 23 16.8708 22.863 16.8708 22.6941V16.4715H19.1576C19.3266 16.4715 19.4634 16.3346 19.4634 16.1656L19.4644 13.6996C19.4644 13.6184 19.4321 13.5407 19.3748 13.4833C19.3175 13.4259 19.2395 13.3936 19.1583 13.3936H16.8708V11.9507C16.8708 11.2572 17.0361 10.9052 17.9394 10.9052L19.2498 10.9047C19.4186 10.9047 19.5555 10.7677 19.5555 10.5989V8.30898C19.5555 8.14029 19.4188 8.00343 19.2501 8.00312Z" fill="white"/>
</svg>
