<svg width="60" height="60" viewBox="0 0 60 60" fill="none" xmlns="http://www.w3.org/2000/svg">
<circle cx="30" cy="30" r="30" fill="#FFF4D1"/>
<path d="M22.432 24.9493C22.2263 24.2525 22.0287 23.5546 21.8802 22.8858C20.904 22.3083 20.2399 21.2572 20.2399 20.0425C20.2399 18.2151 21.7259 16.7303 23.5521 16.7303C25.3782 16.7303 26.8642 18.2163 26.8642 20.0425C26.8642 20.2938 26.8303 20.5359 26.7777 20.7708C27.0945 21.4688 27.3506 22.2545 27.575 23.053C28.2064 22.2112 28.5945 21.1765 28.5945 20.0425C28.5945 17.2564 26.3381 15 23.5521 15C20.766 15 18.5107 17.2564 18.5107 20.0425C18.5107 22.4415 20.1885 24.4396 22.432 24.9493Z" fill="#F5B01B"/>
<path d="M18.9492 36.8874C20.192 35.5441 21.5867 36.0702 23.4538 36.3543C25.0579 36.601 26.6374 36.1509 26.5322 35.2845C26.3662 33.8827 26.1323 33.2561 25.6004 31.4404C25.176 29.9965 24.3705 27.394 23.6374 24.9061C22.6553 21.5776 22.3712 20.032 23.6783 19.6462C25.0871 19.2358 25.895 21.2374 26.6269 24.0129C27.4605 27.1719 27.8989 28.5667 28.1444 28.493C28.577 28.3691 27.9854 27.0176 29.1171 26.6844C30.5318 26.2729 30.8054 27.3789 31.2017 27.2678C31.598 27.1485 31.4636 26.0285 32.5918 25.6988C33.7259 25.3714 34.2952 26.7674 34.7629 26.6283C35.2259 26.4915 35.2153 25.9876 35.9145 25.7877C36.6148 25.5796 39.25 26.7592 40.7582 31.9116C42.651 38.3898 40.5185 39.594 41.1651 41.7873L32.7157 45.0001C32.0318 43.3551 29.9133 43.2335 28.0392 42.1848C26.151 41.122 24.8685 39.0515 19.9476 39.152C18.0969 39.1895 18.1846 37.714 18.9492 36.8874Z" fill="#F5B01B"/>
</svg>
