<svg width="60" height="60" viewBox="0 0 60 60" fill="none" xmlns="http://www.w3.org/2000/svg">
<circle cx="30" cy="30" r="30" fill="#FFEDED"/>
<path d="M44.0625 35.625H15.9375C15.42 35.625 15 36.045 15 36.5625C15 37.08 15.42 37.5 15.9375 37.5H44.0625C44.58 37.5 45 37.08 45 36.5625C45 36.045 44.58 35.625 44.0625 35.625Z" fill="#DE5D5D"/>
<path d="M44.0625 39.375H15.9375C15.42 39.375 15 39.795 15 40.3125C15 40.83 15.42 41.25 15.9375 41.25H44.0625C44.58 41.25 45 40.83 45 40.3125C45 39.795 44.58 39.375 44.0625 39.375Z" fill="#DE5D5D"/>
<path d="M44.0625 43.125H15.9375C15.42 43.125 15 43.545 15 44.0625C15 44.58 15.42 45 15.9375 45H44.0625C44.58 45 45 44.58 45 44.0625C45 43.545 44.58 43.125 44.0625 43.125Z" fill="#DE5D5D"/>
<path d="M42.8125 15H17.1875C15.9875 15 15 15.9875 15 17.1875V31.5625C15 32.7625 15.9875 33.75 17.1875 33.75H42.8125C44.0125 33.75 45 32.7625 45 31.5625V17.1875C45 15.9875 44.0125 15 42.8125 15ZM16.875 17.1875C16.875 17.0125 17.0125 16.875 17.1875 16.875H42.8125C42.9875 16.875 43.125 17.0125 43.125 17.1875V23.1125L40.25 20.55C39.4 19.7875 38.0875 19.825 37.25 20.6375L30.25 27.65L29.85 27.725C29.825 27.7125 29.8 27.7 29.775 27.675L25.2625 23.1625C24.425 22.325 23.0875 22.3 22.225 23.1L16.875 28.05V17.1875Z" fill="#DE5D5D"/>
</svg>
