<svg width="30" height="30" viewBox="0 0 30 30" fill="none" xmlns="http://www.w3.org/2000/svg">
<circle cx="15" cy="15" r="14.5" stroke="#EB4747"/>
<g clip-path="url(#clip0_1_4111)">
<path d="M13.2633 16.4898H15.6068C15.1954 17.6528 14.0813 18.4867 12.777 18.4771C11.1944 18.4654 9.88573 17.1993 9.82429 15.6178C9.75843 13.9226 11.1185 12.5224 12.7993 12.5224C13.5679 12.5224 14.2692 12.8153 14.798 13.2951C14.9232 13.4088 15.1139 13.4095 15.237 13.2936L16.0978 12.4835C16.2324 12.3567 16.2329 12.1428 16.0987 12.0156C15.2601 11.2212 14.1353 10.7261 12.8949 10.7018C10.2491 10.6502 8.01904 12.8194 8.00061 15.4656C7.98202 18.1316 10.1376 20.2986 12.7993 20.2986C15.3591 20.2986 17.4501 18.2944 17.5902 15.7697C17.5939 15.738 17.5964 14.6683 17.5964 14.6683H13.2633C13.0857 14.6683 12.9417 14.8122 12.9417 14.9899V16.1682C12.9417 16.3458 13.0857 16.4898 13.2633 16.4898Z" fill="#EB4747"/>
<path d="M21.5674 14.7754V13.6241C21.5674 13.4684 21.4412 13.3423 21.2856 13.3423H20.3165C20.1609 13.3423 20.0347 13.4684 20.0347 13.6241V14.7754H18.8834C18.7277 14.7754 18.6016 14.9016 18.6016 15.0572V16.0263C18.6016 16.1819 18.7277 16.3081 18.8834 16.3081H20.0347V17.4594C20.0347 17.6151 20.1609 17.7412 20.3165 17.7412H21.2856C21.4412 17.7412 21.5674 17.6151 21.5674 17.4594V16.3081H22.7187C22.8743 16.3081 23.0005 16.1819 23.0005 16.0263V15.0572C23.0005 14.9016 22.8743 14.7754 22.7187 14.7754H21.5674Z" fill="#EB4747"/>
</g>
<defs>
<clipPath id="clip0_1_4111">
<rect width="15" height="15" fill="white" transform="translate(8 8)"/>
</clipPath>
</defs>
</svg>
