<svg width="124" height="79" viewBox="0 0 124 79" fill="none" xmlns="http://www.w3.org/2000/svg">
<g opacity="0.3">
<path opacity="0.4" d="M121.85 16.0995C112.61 25.3395 99.6803 20.5495 88.2803 16.3295C77.9403 12.4995 70.9003 10.2495 67.3703 13.7895C63.8303 17.3295 66.0803 24.3695 69.9103 34.7095C74.1303 46.1095 78.9203 59.0395 69.6803 68.2795C60.4403 77.5195 47.5103 72.7395 36.1103 68.5095C25.7703 64.6795 18.7303 62.4295 15.1903 65.9695C12.8503 68.3095 9.05031 68.3095 6.70031 65.9695C4.36031 63.6295 4.36031 59.8295 6.70031 57.4795C15.9403 48.2395 28.8703 53.0195 40.2703 57.2495C50.6103 61.0795 57.6503 63.3295 61.1903 59.7895C64.7303 56.2495 62.4803 49.2095 58.6503 38.8695C54.4303 27.4695 49.6403 14.5395 58.8803 5.29949C68.1203 -3.94051 81.0503 0.849508 92.4503 5.06951C102.79 8.89951 109.83 11.1495 113.36 7.60949C115.7 5.26949 119.5 5.26949 121.85 7.60949C124.2 9.95949 124.2 13.7595 121.85 16.0995Z" fill="#FF7B7B"/>
<path d="M51.96 78.5495C45.28 78.5495 38.12 75.8996 31.48 73.4396C21.32 69.6796 14.42 67.4596 11.09 70.7896C8.55 73.3196 4.43 73.3196 1.9 70.7896C0.670002 69.5596 0 67.9296 0 66.1896C0 64.4496 0.680001 62.8195 1.9 61.5896C11.37 52.1195 24.45 56.9695 36 61.2395C46.16 64.9995 53.06 67.2196 56.39 63.8896C59.72 60.5596 57.5 53.6596 53.74 43.4996C49.46 31.9596 44.62 18.8695 54.09 9.39955C63.56 -0.0704522 76.64 4.77955 88.18 9.05955C98.34 12.8296 105.24 15.0396 108.57 11.7196C111.1 9.18956 115.23 9.18956 117.76 11.7196C118.99 12.9496 119.66 14.5796 119.66 16.3196C119.66 18.0596 118.98 19.6896 117.76 20.9196C108.29 30.3896 95.21 25.5396 83.66 21.2596C73.5 17.4996 66.6 15.2796 63.27 18.5996C59.94 21.9296 62.16 28.8295 65.92 38.9895C70.2 50.5295 75.04 63.6196 65.57 73.0896C61.56 77.1096 56.89 78.5495 51.96 78.5495ZM15.72 68.1596C19.7 68.1596 25.07 69.9895 31.82 72.4895C43.08 76.6595 55.85 81.3896 64.86 72.3696C73.88 63.3496 69.15 50.5895 64.97 39.3295C61.07 28.8095 58.8 21.6296 62.55 17.8896C66.3 14.1396 73.47 16.4196 83.99 20.3096C95.25 24.4796 108.02 29.2096 117.03 20.1996C119.17 18.0596 119.17 14.5696 117.03 12.4196C114.89 10.2796 111.4 10.2796 109.25 12.4196C105.5 16.1696 98.33 13.8896 87.81 9.99955C76.55 5.82955 63.79 1.09954 54.77 10.1095C45.75 19.1295 50.48 31.8895 54.66 43.1495C58.56 53.6695 60.83 60.8495 57.08 64.5896C53.33 68.3396 46.15 66.0696 35.64 62.1696C24.38 57.9996 11.61 53.2696 2.6 62.2896C1.56 63.3296 0.990002 64.7095 0.990002 66.1795C0.990002 67.6495 1.56 69.0296 2.6 70.0696C4.74 72.2096 8.23 72.2096 10.38 70.0696C11.72 68.7296 13.5 68.1596 15.72 68.1596Z" fill="#344151"/>
</g>
</svg>
