<svg width="298" height="83" viewBox="0 0 298 83" fill="none" xmlns="http://www.w3.org/2000/svg">
<g opacity="0.2">
<path d="M268.585 83C250.157 83 241.697 64.5194 234.887 49.6586C228.401 35.4907 223.621 26.215 216.571 26.215C209.521 26.215 204.742 35.5048 198.242 49.6586C191.446 64.5053 182.972 83 164.543 83C146.115 83 137.641 64.5194 130.845 49.6586C124.359 35.4907 119.579 26.215 112.516 26.215C105.466 26.215 100.686 35.5048 94.1859 49.6586C87.3899 64.5053 78.916 83 60.4877 83C42.0594 83 33.5855 64.5194 26.7894 49.6586C20.3036 35.4907 15.5238 26.215 8.45981 26.215C3.79282 26.215 0 22.4115 0 17.7312C0 13.051 3.79282 9.24744 8.45981 9.24744C26.8881 9.24744 35.362 27.728 42.1581 42.5888C48.6439 56.7567 53.4237 66.0324 60.4877 66.0324C67.5375 66.0324 72.3173 56.7426 78.8173 42.5888C85.6133 27.7421 94.0872 9.24744 112.516 9.24744C130.944 9.24744 139.418 27.728 146.214 42.5888C152.7 56.7567 157.479 66.0324 164.543 66.0324C171.607 66.0324 176.373 56.7426 182.873 42.5888C189.669 27.7421 198.143 9.24744 216.571 9.24744C235 9.24744 243.459 27.728 250.269 42.5888C256.755 56.7567 261.535 66.0324 268.585 66.0324C273.252 66.0324 277.045 69.8359 277.045 74.5162C277.045 79.1964 273.252 83 268.585 83Z" fill="#EB4747" fill-opacity="0.5"/>
<path d="M118.377 33.9558H99.6787V35.3659H118.377V33.9558Z" fill="#344151"/>
<path d="M115.712 39.6104H97.0137V41.0205H115.712V39.6104Z" fill="#344151"/>
<path d="M113.089 45.265H94.1226V46.6751H113.089V45.265Z" fill="#344151"/>
<path d="M110.269 50.9337H90.541V52.3438H110.269V50.9337Z" fill="#344151"/>
<path d="M81.6856 58.055C81.5164 58.055 81.3471 58.0409 81.192 58.0268L81.0087 58.0127H56.3174V56.6025L81.3612 56.6307C81.5868 56.6589 81.8125 56.6589 82.0381 56.6307L82.2637 56.6025H107.068V58.0127L82.1791 58.0268C82.0099 58.0268 81.8548 58.055 81.6856 58.055Z" fill="#344151"/>
<path d="M103.091 62.243H60.2793V63.6532H103.091V62.243Z" fill="#344151"/>
<path d="M155.111 11.3234H112.299V12.7335H155.111V11.3234Z" fill="#344151"/>
<path d="M159.087 18.388L134.044 18.3598C133.818 18.3316 133.592 18.3316 133.381 18.3598L133.141 18.388H108.337V16.9778L133.226 16.9637C133.55 16.9214 133.874 16.9214 134.199 16.9637L134.396 16.9778H159.087V18.388Z" fill="#344151"/>
<path d="M142.194 2.9189C139.543 1.91771 136.68 1.41007 133.705 1.41007C131.181 1.41007 128.727 1.7767 126.443 2.49586L126.02 1.15624C128.445 0.394774 131.025 0.0140381 133.705 0.0140381C136.849 0.0140381 139.881 0.549888 142.687 1.60748L142.194 2.9189Z" fill="#344151"/>
<path d="M149.555 5.66882H117.883V7.07894H149.555V5.66882Z" fill="#344151"/>
<path d="M121.282 28.3011H102.315V29.7113H121.282V28.3011Z" fill="#344151"/>
<path d="M124.849 22.6467H105.122V24.0569H124.849V22.6467Z" fill="#344151"/>
<path d="M38.084 2.90497C35.4471 1.91789 32.6127 1.42434 29.6514 1.42434C28.1849 1.42434 26.7466 1.83328 25.5198 2.62295L24.7583 1.43845C26.2248 0.507763 27.9029 0.0283203 29.6514 0.0283203C32.7819 0.0283203 35.7855 0.564164 38.5775 1.59356L38.084 2.90497Z" fill="#344151"/>
<path d="M45.4874 5.66882H21.6704V7.07894H45.4874V5.66882Z" fill="#344151"/>
<path d="M201.575 67.8976H169.903V69.3077H201.575V67.8976Z" fill="#344151"/>
<path d="M185.739 74.9766C183.13 74.9766 180.592 74.6099 178.223 73.8767L178.632 72.5229C182.904 73.8344 187.896 73.8908 192.211 72.7063L192.578 74.06C190.42 74.6663 188.108 74.9766 185.739 74.9766Z" fill="#344151"/>
<path d="M55.0341 18.388L29.9903 18.3598C29.8775 18.3457 29.7647 18.3316 29.6519 18.3316V16.9215C29.8211 16.9215 29.9762 16.9356 30.1454 16.9497L30.3428 16.9638H55.0341V18.388V18.388Z" fill="#344151"/>
<path d="M51.0576 11.3234H21.6987V12.7335H51.0576V11.3234Z" fill="#344151"/>
<path d="M97.5211 67.8976H65.8496V69.3077H97.5211V67.8976Z" fill="#344151"/>
<path d="M81.6856 74.9764C78.8794 74.9764 76.1579 74.5533 73.6196 73.7073L74.0568 72.3676C78.9922 74.0034 84.8301 73.9611 89.7374 72.2125L90.2027 73.538C87.5376 74.4969 84.6609 74.9764 81.6856 74.9764Z" fill="#344151"/>
<path d="M61.0551 28.3011H42.0889V29.7113H61.0551V28.3011Z" fill="#344151"/>
<path d="M58.2491 22.6467H38.5073V24.0569H58.2491V22.6467Z" fill="#344151"/>
<path d="M63.6924 33.9558H44.9941V35.3659H63.6924V33.9558Z" fill="#344151"/>
<path d="M66.3575 39.6104H47.6592V41.0205H66.3575V39.6104Z" fill="#344151"/>
<path d="M162.316 22.6467H142.575V24.0569H162.316V22.6467Z" fill="#344151"/>
<path d="M165.109 28.3011H146.143V29.7113H165.109V28.3011Z" fill="#344151"/>
<path d="M72.8297 50.9337H53.0879V52.3438H72.8297V50.9337Z" fill="#344151"/>
<path d="M69.2479 45.265H50.2817V46.6751H69.2479V45.265Z" fill="#344151"/>
<path d="M269.162 28.3011H250.196V29.7113H269.162V28.3011Z" fill="#344151"/>
<path d="M266.356 22.6467H246.628V24.0569H266.356V22.6467Z" fill="#344151"/>
<path d="M274.464 39.6104H255.766V41.0205H274.464V39.6104Z" fill="#344151"/>
<path d="M271.798 33.9558H253.1V35.3659H271.798V33.9558Z" fill="#344151"/>
<path d="M259.178 11.3234H216.367V12.7335H259.178V11.3234Z" fill="#344151"/>
<path d="M263.155 18.388L238.111 18.3598C237.885 18.3316 237.66 18.3316 237.448 18.3598L237.208 18.388H212.404V16.9778L237.293 16.9637C237.617 16.9214 237.942 16.9214 238.266 16.9637L238.463 16.9778H263.155V18.388V18.388Z" fill="#344151"/>
<path d="M297.759 67.8976H273.956V69.3077H297.759V67.8976Z" fill="#344151"/>
<path d="M289.792 74.9765C286.605 74.9765 283.545 74.4265 280.71 73.3407L281.218 72.0293C283.897 73.0587 286.788 73.5663 289.806 73.5663C291.357 73.5663 292.852 73.1151 294.121 72.2549L294.91 73.4253C293.387 74.4265 291.625 74.9765 289.792 74.9765Z" fill="#344151"/>
<path d="M297.745 62.243H268.386V63.6532H297.745V62.243Z" fill="#344151"/>
<path d="M289.791 58.055C289.622 58.055 289.467 58.0409 289.298 58.0268L289.1 58.0127H264.409V56.6025L289.453 56.6307C289.566 56.6448 289.679 56.6589 289.791 56.6589V58.055Z" fill="#344151"/>
<path d="M277.354 45.265H258.388V46.6751H277.354V45.265Z" fill="#344151"/>
<path d="M280.922 50.9337H261.195V52.3438H280.922V50.9337Z" fill="#344151"/>
<path d="M176.883 50.9337H157.142V52.3438H176.883V50.9337Z" fill="#344151"/>
<path d="M173.302 45.265H154.335V46.6751H173.302V45.265Z" fill="#344151"/>
<path d="M185.739 58.055C185.57 58.055 185.4 58.0409 185.245 58.0268L185.062 58.0127H160.371V56.6025L185.414 56.6307C185.64 56.6589 185.866 56.6589 186.091 56.6307L186.317 56.6025H211.135V58.0127L186.246 58.0268C186.077 58.0268 185.908 58.055 185.739 58.055Z" fill="#344151"/>
<path d="M207.144 62.243H164.333V63.6532H207.144V62.243Z" fill="#344151"/>
<path d="M167.746 33.9558H149.047V35.3659H167.746V33.9558Z" fill="#344151"/>
<path d="M170.411 39.6104H151.712V41.0205H170.411V39.6104Z" fill="#344151"/>
<path d="M217.142 45.265H198.176V46.6751H217.142V45.265Z" fill="#344151"/>
<path d="M214.35 50.9337H194.608V52.3438H214.35V50.9337Z" fill="#344151"/>
<path d="M228.917 22.6467H209.175V24.0569H228.917V22.6467Z" fill="#344151"/>
<path d="M225.335 28.3011H206.369V29.7113H225.335V28.3011Z" fill="#344151"/>
<path d="M246.078 5.66882H221.937V7.07894H246.078V5.66882Z" fill="#344151"/>
<path d="M246.205 2.90486C241.114 1.00119 235.008 0.944782 229.89 2.70744L229.424 1.36782C232.047 0.465338 234.853 0 237.772 0C240.903 0 243.906 0.535849 246.698 1.56524L246.205 2.90486Z" fill="#344151"/>
<path d="M253.594 5.66882H246.078V7.07894H253.594V5.66882Z" fill="#344151"/>
<path d="M222.444 33.9558H203.746V35.3659H222.444V33.9558Z" fill="#344151"/>
<path d="M219.779 39.6104H201.081V41.0205H219.779V39.6104Z" fill="#344151"/>
</g>
</svg>
