<svg width="30" height="30" viewBox="0 0 30 30" fill="none" xmlns="http://www.w3.org/2000/svg">
<circle cx="15" cy="15" r="14.5" stroke="#EB4747"/>
<g clip-path="url(#clip0_202_20)">
<path d="M17.7264 8.92343C17.4986 8.22219 16.7448 7.83781 16.0427 8.06562C15.3405 8.29343 14.957 9.04718 15.1849 9.74936L18.6395 20.3796C18.8767 21.0349 19.5845 21.4033 20.2651 21.2083C20.9739 21.0039 21.407 20.2511 21.1801 19.5546C21.1717 19.5274 17.7264 8.92343 17.7264 8.92343Z" fill="#EB4747"/>
<path d="M12.3751 10.6641C12.1463 9.96192 11.3926 9.57755 10.6914 9.8063C9.99012 10.035 9.60481 10.7879 9.83356 11.49L13.2882 22.1193C13.5254 22.7746 14.2332 23.1431 14.9138 22.9481C15.6226 22.7437 16.0557 21.9909 15.8288 21.2943C15.8204 21.2681 12.3751 10.6641 12.3751 10.6641Z" fill="#EB4747"/>
<path d="M22.0773 17.7274C22.7794 17.4996 23.1629 16.7458 22.9351 16.0436C22.7073 15.3415 21.9535 14.958 21.2513 15.1858L10.6211 18.6414C9.96582 18.8786 9.59738 19.5864 9.79238 20.267C9.99676 20.9758 10.7496 21.4089 11.4461 21.182C11.4733 21.1726 22.0773 17.7274 22.0773 17.7274Z" fill="#EB4747"/>
<path d="M12.8357 20.7308C13.5276 20.5058 14.4191 20.2161 15.3763 19.9049C15.1513 19.213 14.8616 18.3214 14.5504 17.3643L12.0098 18.1902L12.8357 20.7308Z" fill="#EB4747"/>
<path d="M18.1892 18.9905C19.1501 18.6783 20.0426 18.3886 20.7298 18.1646C20.5048 17.4727 20.2151 16.5802 19.9039 15.623L17.3633 16.449L18.1892 18.9905Z" fill="#EB4747"/>
<path d="M20.3365 12.3748C21.0387 12.147 21.4221 11.3933 21.1943 10.6911C20.9665 9.98891 20.2128 9.60548 19.5106 9.83329L8.88131 13.2879C8.22506 13.5251 7.85663 14.2329 8.05257 14.9136C8.25694 15.6223 9.00974 16.0545 9.7063 15.8285C9.73255 15.8201 20.3365 12.3748 20.3365 12.3748Z" fill="#EB4747"/>
<path d="M11.0965 15.3763C11.7883 15.1513 12.6808 14.8616 13.638 14.5504C13.3258 13.5904 13.0361 12.6979 12.8121 12.0098L10.2715 12.8357L11.0965 15.3763Z" fill="#EB4747"/>
<path d="M16.449 13.638C17.4099 13.3258 18.3024 13.0361 18.9905 12.812C18.6783 11.8511 18.3877 10.9586 18.1646 10.2705L15.623 11.0964L16.449 13.638Z" fill="#EB4747"/>
</g>
<defs>
<clipPath id="clip0_202_20">
<rect width="15" height="15" fill="white" transform="translate(8 8)"/>
</clipPath>
</defs>
</svg>
