<svg width="30" height="30" viewBox="0 0 30 30" fill="none" xmlns="http://www.w3.org/2000/svg">
<circle cx="15" cy="15" r="14.5" stroke="#EB4747"/>
<g clip-path="url(#clip0_202_19)">
<path d="M14.9609 16.4414L11.1164 13.9622C10.9916 13.8817 10.8293 13.8903 10.7137 13.9833L8.12903 16.0633C7.94597 16.2106 7.96083 16.4939 8.15831 16.6213L12.0028 19.1005C12.1275 19.1809 12.2898 19.1724 12.4055 19.0793L14.9901 16.9994C15.1732 16.8521 15.1583 16.5687 14.9609 16.4414Z" fill="#EB4747"/>
<path d="M16.0113 16.9994L18.596 19.0793C18.7117 19.1724 18.874 19.1809 18.9987 19.1004L22.8432 16.6212C23.0406 16.4939 23.0555 16.2106 22.8724 16.0633L20.2878 13.9833C20.1721 13.8903 20.0098 13.8817 19.8851 13.9622L16.0406 16.4414C15.8432 16.5687 15.8283 16.8521 16.0113 16.9994Z" fill="#EB4747"/>
<path d="M14.9901 10.4888L12.4055 8.40888C12.2898 8.31581 12.1275 8.30729 12.0028 8.38775L8.15831 10.8669C7.96083 10.9943 7.94597 11.2776 8.12903 11.4249L10.7137 13.5048C10.8294 13.5979 10.9916 13.6064 11.1164 13.526L14.9609 11.0468C15.1583 10.9194 15.1732 10.6361 14.9901 10.4888Z" fill="#EB4747"/>
<path d="M22.8427 10.8669L18.9982 8.38775C18.8735 8.30729 18.7112 8.31581 18.5955 8.40888L16.0109 10.4888C15.8278 10.6361 15.8427 10.9194 16.0401 11.0468L19.8846 13.526C20.0094 13.6064 20.1717 13.5979 20.2873 13.5048L22.872 11.4249C23.055 11.2776 23.0402 10.9942 22.8427 10.8669Z" fill="#EB4747"/>
<path d="M15.312 17.3643L12.4175 19.6732C12.3126 19.7569 12.166 19.7643 12.0532 19.6916L11.3398 19.2315C11.1318 19.0974 10.8579 19.2467 10.8579 19.4941V19.7429C10.8579 19.8522 10.915 19.9535 11.0084 20.0102L15.3176 22.6224C15.4172 22.6827 15.5421 22.6827 15.6417 22.6224L19.9509 20.0102C20.0443 19.9535 20.1014 19.8522 20.1014 19.7429V19.5209C20.1014 19.2734 19.8275 19.1241 19.6195 19.2582L18.9479 19.6913C18.8349 19.7642 18.688 19.7566 18.5831 19.6726L15.7023 17.3648C15.5883 17.2734 15.4262 17.2733 15.312 17.3643Z" fill="#EB4747"/>
</g>
<defs>
<clipPath id="clip0_202_19">
<rect width="15" height="15" fill="white" transform="translate(8 8)"/>
</clipPath>
</defs>
</svg>
