<svg width="78" height="44" viewBox="0 0 78 44" fill="none" xmlns="http://www.w3.org/2000/svg">
<path d="M22.704 8.5C22.9387 8.5 23.0267 8.632 22.968 8.896L22.616 11.14L22.044 14.792C22.0147 14.88 21.9413 14.924 21.824 14.924C21.7653 14.924 21.692 14.9093 21.604 14.88C21.5453 14.8213 21.516 14.7773 21.516 14.748C21.3693 13.1053 20.7827 11.8147 19.756 10.876C18.7293 9.908 17.4093 9.424 15.796 9.424H15.048C14.1973 9.424 13.5813 9.49733 13.2 9.644C12.8187 9.76133 12.54 9.996 12.364 10.348C12.2173 10.7 12.056 11.2867 11.88 12.108L10.208 21.612H14.256C15.576 21.612 16.6027 21.348 17.336 20.82C18.0693 20.292 18.568 19.4267 18.832 18.224C18.832 18.136 18.92 18.092 19.096 18.092C19.1547 18.092 19.2133 18.1213 19.272 18.18C19.36 18.2093 19.3893 18.2533 19.36 18.312C19.2427 19.1333 19.0667 20.0427 18.832 21.04C18.832 21.1573 18.7587 21.5533 18.612 22.228L18.436 23.372C18.3187 24.2227 18.1427 25.3373 17.908 26.716C17.8787 26.8333 17.776 26.892 17.6 26.892C17.424 26.8627 17.3507 26.7893 17.38 26.672C17.4387 26.2613 17.468 25.968 17.468 25.792C17.468 24.824 17.16 24.0907 16.544 23.592C15.928 23.0933 15.0627 22.844 13.948 22.844H9.988L8.316 32.26C8.228 32.7293 8.184 33.1253 8.184 33.448C8.184 34.24 8.448 34.7827 8.976 35.076C9.53333 35.34 10.5453 35.472 12.012 35.472C12.0707 35.472 12.1 35.56 12.1 35.736C12.1 35.912 12.0707 36 12.012 36C11.396 36 10.868 35.9853 10.428 35.956L5.456 35.912L2.64 35.956C2.17067 35.9853 1.51067 36 0.66 36C0.601333 36 0.572 35.912 0.572 35.736C0.572 35.56 0.601333 35.472 0.66 35.472C1.48133 35.472 2.09733 35.3987 2.508 35.252C2.91867 35.1053 3.22667 34.8267 3.432 34.416C3.63733 33.976 3.81333 33.316 3.96 32.436L7.568 12.064C7.68533 11.3013 7.744 10.8173 7.744 10.612C7.744 9.996 7.568 9.58533 7.216 9.38C6.864 9.14533 6.26267 9.028 5.412 9.028C5.324 9.028 5.28 8.94 5.28 8.764C5.28 8.588 5.324 8.5 5.412 8.5H22.704ZM25.4915 36.396C24.0835 36.396 23.3795 35.56 23.3795 33.888C23.3795 33.3013 23.4381 32.7 23.5555 32.084L27.6035 10.084C27.6915 9.49733 27.7355 9.01333 27.7355 8.632C27.7355 7.78133 27.4568 7.356 26.8995 7.356C26.5475 7.356 25.9315 7.56133 25.0515 7.972H25.0075C24.8608 7.972 24.7728 7.89867 24.7435 7.752C24.7141 7.576 24.7581 7.47333 24.8755 7.444L31.6955 4.1H31.7835C31.9008 4.1 32.0035 4.144 32.0915 4.232C32.2088 4.32 32.2528 4.39333 32.2235 4.452L27.2955 32.084C27.2075 32.524 27.1635 32.8907 27.1635 33.184C27.1635 33.8293 27.3835 34.152 27.8235 34.152C28.1168 34.152 28.4395 34.02 28.7915 33.756C29.1728 33.492 29.6275 33.1107 30.1555 32.612C30.2141 32.5533 30.2728 32.524 30.3315 32.524C30.4195 32.524 30.4928 32.5827 30.5515 32.7C30.6101 32.788 30.5955 32.876 30.5075 32.964C29.5101 34.1373 28.6301 35.0027 27.8675 35.56C27.1048 36.1173 26.3128 36.396 25.4915 36.396ZM39.1786 36.616C37.2426 36.616 35.7612 36 34.7346 34.768C33.7372 33.5067 33.2386 31.8787 33.2386 29.884C33.2386 29.004 33.3119 28.212 33.4586 27.508C33.7812 25.748 34.4119 24.1787 35.3506 22.8C36.3186 21.4213 37.4772 20.3507 38.8266 19.588C40.1759 18.8253 41.6279 18.444 43.1826 18.444C45.1479 18.444 46.6439 19.0453 47.6706 20.248C48.7266 21.4213 49.2546 23.0053 49.2546 25C49.2546 25.792 49.1666 26.628 48.9906 27.508C48.6092 29.444 47.9052 31.1013 46.8786 32.48C45.8812 33.8293 44.6932 34.856 43.3146 35.56C41.9652 36.264 40.5866 36.616 39.1786 36.616ZM40.6746 35.516C41.6132 35.516 42.4199 34.9733 43.0946 33.888C43.7986 32.8027 44.3119 31.3213 44.6346 29.444C44.8399 28.3 44.9426 27.1413 44.9426 25.968C44.9426 24.0613 44.6492 22.5067 44.0626 21.304C43.5052 20.1013 42.7279 19.5 41.7306 19.5C40.8506 19.5 40.0586 20.0133 39.3546 21.04C38.6799 22.0667 38.1666 23.592 37.8146 25.616C37.6092 26.76 37.5066 27.9187 37.5066 29.092C37.5066 30.9987 37.7852 32.5533 38.3426 33.756C38.8999 34.9293 39.6772 35.516 40.6746 35.516ZM73.4319 18.576C74.2239 18.576 74.8105 18.84 75.1919 19.368C75.6025 19.896 75.8079 20.8347 75.8079 22.184C75.8079 22.976 75.7785 23.6213 75.7199 24.12C75.5145 26.2907 74.9425 28.344 74.0039 30.28C73.0945 32.1867 71.9652 33.712 70.6159 34.856C69.2959 36 67.9759 36.572 66.6559 36.572C65.0132 36.572 63.7812 35.6773 62.9599 33.888C61.3172 35.6773 59.6599 36.572 57.9879 36.572C56.6679 36.572 55.6412 36.1613 54.9079 35.34C54.2039 34.4893 53.8519 33.3307 53.8519 31.864C53.8519 31.3653 53.8959 30.8373 53.9839 30.28C54.3065 28.2853 55.2012 26.056 56.6679 23.592C56.9319 23.1813 57.0639 22.8733 57.0639 22.668C57.0639 22.4627 56.8879 22.36 56.5359 22.36H54.4239C53.3972 22.36 52.6492 22.5067 52.1799 22.8C51.7105 23.0933 51.3585 23.5773 51.1239 24.252C51.0652 24.3693 50.9772 24.428 50.8599 24.428C50.7719 24.428 50.6985 24.3987 50.6399 24.34C50.5812 24.2813 50.5665 24.208 50.5959 24.12C51.0652 22.7413 51.4759 21.7 51.8279 20.996C52.2092 20.292 52.6492 19.7787 53.1479 19.456C53.6759 19.1333 54.3652 18.972 55.2159 18.972H59.3079C59.6305 18.972 59.7919 19.0307 59.7919 19.148C59.7919 19.236 59.7479 19.3533 59.6599 19.5C59.0439 20.9373 58.4719 22.4187 57.9439 23.944C57.4452 25.44 57.1225 26.6867 56.9759 27.684C56.9172 28.0067 56.8879 28.4467 56.8879 29.004C56.8879 30.2947 57.1812 31.3213 57.7679 32.084C58.3839 32.8173 59.1905 33.184 60.1879 33.184C60.9212 33.184 61.6692 32.876 62.4319 32.26C62.2265 31.3507 62.1239 30.2507 62.1239 28.96C62.1239 27.4933 62.2412 26.1 62.4759 24.78C62.8572 22.6973 63.3559 21.172 63.9719 20.204C64.5879 19.236 65.3505 18.752 66.2599 18.752C67.4625 18.752 68.0639 19.6027 68.0639 21.304C68.0639 21.8027 68.0199 22.3893 67.9319 23.064C67.7265 24.472 67.3745 25.88 66.8759 27.288C66.3772 28.696 65.7612 30.0013 65.0279 31.204C65.9959 32.524 67.2572 33.184 68.8119 33.184C69.9559 33.184 70.9825 32.6413 71.8919 31.556C72.8305 30.4413 73.4025 29.004 73.6079 27.244C73.6372 27.0387 73.6519 26.7453 73.6519 26.364C73.6519 25.66 73.5345 25.0733 73.2999 24.604C73.0652 24.1053 72.6839 23.5627 72.1559 22.976C71.7745 22.5653 71.4812 22.1987 71.2759 21.876C71.0999 21.524 71.0119 21.1427 71.0119 20.732C71.0119 20.028 71.2319 19.5 71.6719 19.148C72.1412 18.7667 72.7279 18.576 73.4319 18.576ZM63.5319 24.472C63.4439 24.9413 63.3999 25.4547 63.3999 26.012C63.3999 27.42 63.7079 28.7693 64.3239 30.06C64.9399 29.1213 65.4385 28.124 65.8199 27.068C66.2305 26.012 66.4359 25.0733 66.4359 24.252C66.4359 23.196 66.0105 22.668 65.1599 22.668C64.7785 22.668 64.4412 22.8 64.1479 23.064C63.8839 23.328 63.6785 23.7973 63.5319 24.472Z" fill="#EB4747"/>
</svg>
