<svg width="60" height="60" viewBox="0 0 60 60" fill="none" xmlns="http://www.w3.org/2000/svg">
<circle cx="30" cy="30" r="30" fill="#DCEDFA"/>
<g clip-path="url(#clip0_202_4)">
<path d="M30 15.75C21.729 15.75 15 21.806 15 29.25C15 31.852 15.823 34.3725 17.384 36.552C17.0885 39.8205 16.2965 42.247 15.1465 43.3965C14.9945 43.5485 14.9565 43.781 15.0525 43.973C15.1375 44.1445 15.3125 44.25 15.5 44.25C15.523 44.25 15.546 44.2485 15.5695 44.245C15.772 44.2165 20.476 43.5395 23.8785 41.5755C25.8105 42.355 27.8685 42.75 30 42.75C38.271 42.75 45 36.694 45 29.25C45 21.806 38.271 15.75 30 15.75ZM23 31.25C21.897 31.25 21 30.353 21 29.25C21 28.147 21.897 27.25 23 27.25C24.103 27.25 25 28.147 25 29.25C25 30.353 24.103 31.25 23 31.25ZM30 31.25C28.897 31.25 28 30.353 28 29.25C28 28.147 28.897 27.25 30 27.25C31.103 27.25 32 28.147 32 29.25C32 30.353 31.103 31.25 30 31.25ZM37 31.25C35.897 31.25 35 30.353 35 29.25C35 28.147 35.897 27.25 37 27.25C38.103 27.25 39 28.147 39 29.25C39 30.353 38.103 31.25 37 31.25Z" fill="#2D58DD"/>
</g>
<defs>
<clipPath id="clip0_202_4">
<rect width="30" height="30" fill="white" transform="translate(15 15)"/>
</clipPath>
</defs>
</svg>
